<svg width="28" height="28" viewBox="0 0 28 28" fill="none" xmlns="http://www.w3.org/2000/svg">
<path d="M21.12 5.27999C20.8036 5.27999 20.4942 5.37383 20.2311 5.54964C19.968 5.72545 19.7629 5.97533 19.6418 6.2677C19.5207 6.56006 19.489 6.88176 19.5508 7.19213C19.6125 7.5025 19.7649 7.7876 19.9887 8.01136C20.2124 8.23513 20.4975 8.38751 20.8079 8.44925C21.1182 8.51098 21.44 8.4793 21.7323 8.3582C22.0247 8.2371 22.2746 8.03202 22.4504 7.7689C22.6262 7.50578 22.72 7.19644 22.72 6.87999C22.72 6.45564 22.5514 6.04868 22.2514 5.74862C21.9513 5.44856 21.5444 5.27999 21.12 5.27999V5.27999ZM27.2534 8.50666C27.2274 7.40039 27.0202 6.30586 26.64 5.26666C26.301 4.3775 25.7733 3.57236 25.0934 2.90666C24.4331 2.22322 23.6261 1.69889 22.7334 1.37332C21.6969 0.981538 20.6012 0.769603 19.4934 0.746656C18.08 0.666656 17.6267 0.666656 14 0.666656C10.3734 0.666656 9.92002 0.666656 8.50669 0.746656C7.39889 0.769603 6.30314 0.981538 5.26669 1.37332C4.37559 1.70219 3.56927 2.22607 2.90669 2.90666C2.22326 3.56689 1.69892 4.37391 1.37335 5.26666C0.981568 6.30311 0.769634 7.39886 0.746687 8.50666C0.666687 9.91999 0.666687 10.3733 0.666687 14C0.666687 17.6267 0.666687 18.08 0.746687 19.4933C0.769634 20.6011 0.981568 21.6969 1.37335 22.7333C1.69892 23.6261 2.22326 24.4331 2.90669 25.0933C3.56927 25.7739 4.37559 26.2978 5.26669 26.6267C6.30314 27.0184 7.39889 27.2304 8.50669 27.2533C9.92002 27.3333 10.3734 27.3333 14 27.3333C17.6267 27.3333 18.08 27.3333 19.4934 27.2533C20.6012 27.2304 21.6969 27.0184 22.7334 26.6267C23.6261 26.3011 24.4331 25.7768 25.0934 25.0933C25.7763 24.4301 26.3045 23.6242 26.64 22.7333C27.0202 21.6941 27.2274 20.5996 27.2534 19.4933C27.2534 18.08 27.3334 17.6267 27.3334 14C27.3334 10.3733 27.3334 9.91999 27.2534 8.50666V8.50666ZM24.8534 19.3333C24.8436 20.1797 24.6904 21.0183 24.4 21.8133C24.1871 22.3936 23.8452 22.9179 23.4 23.3467C22.9675 23.7873 22.4443 24.1286 21.8667 24.3467C21.0716 24.637 20.2331 24.7903 19.3867 24.8C18.0534 24.8667 17.56 24.88 14.0534 24.88C10.5467 24.88 10.0534 24.88 8.72002 24.8C7.84121 24.8164 6.96615 24.6811 6.13335 24.4C5.58106 24.1708 5.08183 23.8304 4.66669 23.4C4.22414 22.9717 3.88648 22.4469 3.68002 21.8667C3.3545 21.0602 3.17395 20.2026 3.14669 19.3333C3.14669 18 3.06669 17.5067 3.06669 14C3.06669 10.4933 3.06669 9.99999 3.14669 8.66666C3.15266 7.8014 3.31062 6.94392 3.61335 6.13332C3.84808 5.57054 4.20837 5.06887 4.66669 4.66666C5.07177 4.20821 5.5724 3.84412 6.13335 3.59999C6.94609 3.30671 7.80268 3.15343 8.66669 3.14666C10 3.14666 10.4934 3.06666 14 3.06666C17.5067 3.06666 18 3.06666 19.3334 3.14666C20.1797 3.15636 21.0183 3.30965 21.8134 3.59999C22.4193 3.82486 22.9631 4.19045 23.4 4.66666C23.837 5.07623 24.1784 5.57697 24.4 6.13332C24.6964 6.94523 24.8497 7.80236 24.8534 8.66666C24.92 9.99999 24.9334 10.4933 24.9334 14C24.9334 17.5067 24.92 18 24.8534 19.3333ZM14 7.15999C12.6478 7.16263 11.3266 7.56602 10.2036 8.31921C9.08048 9.0724 8.20586 10.1416 7.6902 11.3917C7.17454 12.6417 7.04099 14.0166 7.30641 15.3426C7.57184 16.6685 8.22434 17.886 9.18146 18.8413C10.1386 19.7966 11.3574 20.4467 12.6838 20.7095C14.0103 20.9724 15.3849 20.8361 16.634 20.318C17.883 19.7999 18.9505 18.9232 19.7015 17.7987C20.4525 16.6742 20.8534 15.3522 20.8534 14C20.8551 13.1001 20.679 12.2088 20.335 11.3773C19.9911 10.5457 19.4861 9.7904 18.8492 9.15472C18.2123 8.51905 17.456 8.01556 16.6238 7.67323C15.7915 7.3309 14.8999 7.15647 14 7.15999V7.15999ZM14 18.44C13.1219 18.44 12.2634 18.1796 11.5333 17.6917C10.8031 17.2038 10.234 16.5104 9.898 15.6991C9.56194 14.8878 9.47402 13.9951 9.64533 13.1338C9.81665 12.2725 10.2395 11.4814 10.8605 10.8604C11.4814 10.2395 12.2725 9.81662 13.1338 9.6453C13.9951 9.47398 14.8878 9.56191 15.6991 9.89796C16.5104 10.234 17.2039 10.8031 17.6917 11.5333C18.1796 12.2634 18.44 13.1218 18.44 14C18.44 14.5831 18.3252 15.1604 18.102 15.6991C17.8789 16.2378 17.5519 16.7273 17.1396 17.1395C16.7273 17.5518 16.2378 17.8789 15.6991 18.102C15.1604 18.3251 14.5831 18.44 14 18.44V18.44Z" fill="#F9D640"/>
</svg>
