<svg width="28" height="22" viewBox="0 0 28 22" fill="none" xmlns="http://www.w3.org/2000/svg">
<path d="M23.3333 0.333344H4.66663C3.60576 0.333344 2.58834 0.754771 1.8382 1.50492C1.08805 2.25506 0.666626 3.27248 0.666626 4.33334V17.6667C0.666626 18.7275 1.08805 19.745 1.8382 20.4951C2.58834 21.2452 3.60576 21.6667 4.66663 21.6667H23.3333C24.3942 21.6667 25.4116 21.2452 26.1617 20.4951C26.9119 19.745 27.3333 18.7275 27.3333 17.6667V4.33334C27.3333 3.27248 26.9119 2.25506 26.1617 1.50492C25.4116 0.754771 24.3942 0.333344 23.3333 0.333344V0.333344ZM22.7866 3.00001L14.9466 10.84C14.8227 10.965 14.6752 11.0642 14.5127 11.1319C14.3502 11.1996 14.176 11.2344 14 11.2344C13.8239 11.2344 13.6497 11.1996 13.4872 11.1319C13.3247 11.0642 13.1772 10.965 13.0533 10.84L5.21329 3.00001H22.7866ZM24.6666 17.6667C24.6666 18.0203 24.5262 18.3594 24.2761 18.6095C24.0261 18.8595 23.6869 19 23.3333 19H4.66663C4.313 19 3.97387 18.8595 3.72382 18.6095C3.47377 18.3594 3.33329 18.0203 3.33329 17.6667V4.88001L11.1733 12.72C11.9233 13.4691 12.94 13.8898 14 13.8898C15.06 13.8898 16.0766 13.4691 16.8266 12.72L24.6666 4.88001V17.6667Z" fill="#F9D640"/>
</svg>
