<svg width="30" height="30" viewBox="0 0 30 30" fill="none" xmlns="http://www.w3.org/2000/svg">
<path d="M29.385 20.3037L22.6887 13.6222C22.8289 12.9398 22.8984 12.2448 22.8961 11.5481C22.8956 9.63798 22.4136 7.75879 21.4946 6.08425C20.5756 4.40972 19.2492 2.99387 17.6382 1.9676C16.0272 0.941324 14.1834 0.337738 12.2774 0.212633C10.3713 0.0875271 8.46453 0.444939 6.73317 1.25183C6.51382 1.35204 6.32224 1.50428 6.17508 1.69533C6.02792 1.88638 5.92963 2.11046 5.88873 2.34813C5.84799 2.58278 5.86442 2.82379 5.93663 3.05073C6.00884 3.27768 6.1347 3.48387 6.30354 3.65183L12.748 10.0815L10.0813 12.7481L3.65169 6.30368C3.48231 6.13747 3.27548 6.01437 3.0486 5.94476C2.82172 5.87515 2.58144 5.86107 2.34799 5.90369C2.11181 5.94308 1.88871 6.03914 1.69778 6.18363C1.50685 6.32812 1.35378 6.51673 1.25169 6.73331C0.4421 8.47036 0.0849978 10.384 0.213606 12.2961C0.342214 14.2082 0.952353 16.0567 1.98727 17.6697C3.02218 19.2827 4.44824 20.6077 6.13279 21.5216C7.81734 22.4354 9.70565 22.9083 11.6221 22.8963C12.3187 22.8985 13.0137 22.829 13.6961 22.6889L20.3776 29.3852C20.5153 29.524 20.6792 29.6342 20.8597 29.7095C21.0403 29.7847 21.2339 29.8234 21.4295 29.8234C21.625 29.8234 21.8187 29.7847 21.9992 29.7095C22.1797 29.6342 22.3436 29.524 22.4813 29.3852C22.6202 29.2474 22.7304 29.0836 22.8056 28.9031C22.8808 28.7225 22.9195 28.5289 22.9195 28.3333C22.9195 28.1377 22.8808 27.9441 22.8056 27.7636C22.7304 27.583 22.6202 27.4192 22.4813 27.2815L15.2221 20.0222C15.0407 19.842 14.8157 19.7118 14.5691 19.6443C14.3224 19.5768 14.0625 19.5743 13.8147 19.637C13.0994 19.8286 12.3625 19.9281 11.6221 19.9333C10.514 19.9431 9.41493 19.7335 8.3882 19.3167C7.36147 18.8999 6.42736 18.284 5.63968 17.5046C4.852 16.7252 4.22632 15.7976 3.79868 14.7753C3.37104 13.753 3.1499 12.6562 3.14799 11.5481C3.14607 11.0519 3.18571 10.5563 3.26651 10.0666L9.07391 15.8889C9.21164 16.0277 9.37549 16.1379 9.55602 16.2132C9.73655 16.2884 9.93019 16.3271 10.1258 16.3271C10.3213 16.3271 10.515 16.2884 10.6955 16.2132C10.876 16.1379 11.0399 16.0277 11.1776 15.8889L15.8887 11.1333C16.1558 10.8571 16.305 10.4879 16.305 10.1037C16.305 9.71948 16.1558 9.3503 15.8887 9.07406L10.1258 3.26665C10.6155 3.18667 11.111 3.14703 11.6072 3.14813C13.8325 3.15205 15.9653 4.03878 17.5374 5.61366C19.1095 7.18854 19.9924 9.32288 19.9924 11.5481C19.9873 12.2886 19.8877 13.0254 19.6961 13.7407C19.6334 13.9886 19.6359 14.2485 19.7034 14.4951C19.7709 14.7418 19.9011 14.9667 20.0813 15.1481L27.3406 22.4074C27.6195 22.6864 27.9979 22.8431 28.3924 22.8431C28.787 22.8431 29.1653 22.6864 29.4443 22.4074C29.7233 22.1284 29.88 21.7501 29.88 21.3555C29.88 20.961 29.7233 20.5827 29.4443 20.3037H29.385Z" fill="#F9D640"/>
</svg>
