<svg width="30" height="30" viewBox="0 0 30 30" fill="none" xmlns="http://www.w3.org/2000/svg">
<path d="M29.3851 8.1555L21.8443 0.614764C21.5668 0.338837 21.1913 0.18396 20.7999 0.18396C20.4085 0.18396 20.033 0.338837 19.7554 0.614764C19.6166 0.752487 19.5064 0.916341 19.4312 1.09687C19.3559 1.27741 19.3172 1.47104 19.3172 1.66662C19.3172 1.86219 19.3559 2.05583 19.4312 2.23636C19.5064 2.41689 19.6166 2.58074 19.7554 2.71847L22.4073 5.42958L14.3777 13.5185L12.8962 12.037C12.4833 11.6226 11.9926 11.2939 11.4524 11.0696C10.9122 10.8452 10.333 10.7298 9.74804 10.7298C9.16308 10.7298 8.58389 10.8452 8.04366 11.0696C7.50343 11.2939 7.01279 11.6226 6.59989 12.037L1.48878 17.1037C1.07418 17.5177 0.745564 18.0097 0.521822 18.5512C0.298081 19.0928 0.183636 19.6733 0.185072 20.2592V25.3703C0.185072 26.5491 0.653325 27.6795 1.48682 28.513C2.32031 29.3465 3.45078 29.8148 4.62952 29.8148H9.74063C10.3266 29.8162 10.907 29.7018 11.4486 29.478C11.9901 29.2543 12.4821 28.9257 12.8962 28.5111L17.9629 23.4296C18.3772 23.0167 18.7059 22.526 18.9303 21.9858C19.1546 21.4456 19.2701 20.8664 19.2701 20.2814C19.2701 19.6965 19.1546 19.1173 18.9303 18.5771C18.7059 18.0368 18.3772 17.5462 17.9629 17.1333L16.4814 15.6518L24.5703 7.59254L27.2814 10.3037C27.4191 10.4425 27.5829 10.5527 27.7635 10.6279C27.944 10.7031 28.1377 10.7419 28.3332 10.7419C28.5288 10.7419 28.7224 10.7031 28.903 10.6279C29.0835 10.5527 29.2474 10.4425 29.3851 10.3037C29.5308 10.1653 29.6468 9.99866 29.726 9.81401C29.8053 9.62937 29.8462 9.43052 29.8462 9.22958C29.8462 9.02863 29.8053 8.82979 29.726 8.64514C29.6468 8.4605 29.5308 8.29391 29.3851 8.1555V8.1555ZM15.8888 21.3259L10.7925 26.4222C10.6541 26.5595 10.4899 26.6681 10.3094 26.7418C10.1289 26.8156 9.9356 26.8529 9.74063 26.8518H4.62952C4.2366 26.8518 3.85978 26.6957 3.58195 26.4179C3.30412 26.1401 3.14804 25.7632 3.14804 25.3703V20.2592C3.14691 20.0642 3.18428 19.871 3.258 19.6905C3.33173 19.51 3.44036 19.3458 3.57766 19.2074L8.67396 14.1111C8.95154 13.8351 9.32702 13.6803 9.71841 13.6803C10.1098 13.6803 10.4853 13.8351 10.7629 14.1111L12.2443 15.5925L10.9258 16.9259C10.6499 17.2034 10.495 17.5789 10.495 17.9703C10.495 18.3617 10.6499 18.7372 10.9258 19.0148C11.0712 19.1594 11.245 19.2722 11.4363 19.3462C11.6275 19.4201 11.8321 19.4536 12.0369 19.4444C12.4256 19.4428 12.798 19.2885 13.074 19.0148L14.4073 17.6962L15.8888 19.1777C16.0345 19.3161 16.1505 19.4827 16.2297 19.6674C16.309 19.852 16.3499 20.0509 16.3499 20.2518C16.3499 20.4527 16.309 20.6516 16.2297 20.8362C16.1505 21.0209 16.0345 21.1875 15.8888 21.3259Z" fill="#F9D640"/>
</svg>
